<svg width="88" height="69" viewBox="0 0 88 69" fill="none" xmlns="http://www.w3.org/2000/svg">
<path d="M87.2118 21.1453L83.9818 31.1099H38.7608L35.5308 21.1453H87.2118ZM54.9112 0L68.6358 9.6902V52.1889C68.6358 53.4097 68.7777 54.3607 69.0616 55.0421C69.3455 55.695 69.8281 56.1634 70.5095 56.4473C71.2192 56.7028 72.1561 56.8306 73.32 56.8306C74.1433 56.8306 74.8247 56.8164 75.3641 56.788C75.9035 56.7312 83.4992 56.6114 83.9818 56.5262L76.8971 66.8378C75.6763 67.2352 74.3988 67.5333 73.0645 67.7321C71.7302 67.9592 70.3108 68.0727 68.8061 68.0727C65.7401 68.0727 63.1141 67.5901 60.9281 66.6249C58.7705 65.6596 57.124 64.1408 55.9884 62.0684C54.8528 59.996 54.285 57.299 54.285 53.9775L54.9112 0Z" fill="white"/>
<path d="M35.1486 0V67.8314H19.3114V0H35.1486ZM54.9112 0V12.6252H1.52588e-05V0H54.9112Z" fill="white"/>
</svg>
